<?xml version="1.0" encoding="UTF-8" standalone="no"?>
<!-- Generator: Adobe Illustrator 18.0.0, SVG Export Plug-In . SVG Version: 6.00 Build 0)  -->

<svg
   xmlns:dc="http://purl.org/dc/elements/1.1/"
   xmlns:cc="http://creativecommons.org/ns#"
   xmlns:rdf="http://www.w3.org/1999/02/22-rdf-syntax-ns#"
   xmlns:svg="http://www.w3.org/2000/svg"
   xmlns="http://www.w3.org/2000/svg"
   xmlns:sodipodi="http://sodipodi.sourceforge.net/DTD/sodipodi-0.dtd"
   xmlns:inkscape="http://www.inkscape.org/namespaces/inkscape"
   version="1.1"
   id="Ebene_1"
   x="0px"
   y="0px"
   viewBox="0 0 490.29999 113.2"
   enable-background="new 0 0 841.9 595.3"
   xml:space="preserve"
   inkscape:version="0.48.4 r9939"
   width="100%"
   height="100%"
   sodipodi:docname="eiswind3.svg"><metadata
     id="metadata3075"><rdf:RDF><cc:Work
         rdf:about=""><dc:format>image/svg+xml</dc:format><dc:type
           rdf:resource="http://purl.org/dc/dcmitype/StillImage" /><dc:title></dc:title></cc:Work></rdf:RDF></metadata><defs
     id="defs3073" /><sodipodi:namedview
     pagecolor="#ffffff"
     bordercolor="#666666"
     borderopacity="1"
     objecttolerance="10"
     gridtolerance="10"
     guidetolerance="10"
     inkscape:pageopacity="0"
     inkscape:pageshadow="2"
     inkscape:window-width="1437"
     inkscape:window-height="789"
     id="namedview3071"
     showgrid="false"
     fit-margin-top="0"
     fit-margin-left="0"
     fit-margin-right="0"
     fit-margin-bottom="0"
     inkscape:zoom="1"
     inkscape:cx="418.74999"
     inkscape:cy="-183.05"
     inkscape:window-x="11"
     inkscape:window-y="38"
     inkscape:window-maximized="0"
     inkscape:current-layer="Ebene_1" /><g
     id="g3051"
     transform="translate(-250.20002,-227.4)"><g
       id="g3053"><path
         d="M 336.7,301.7 H 262 c -1.2,0 -1.7,0.5 -1.5,1.6 1.5,7.9 5.3,14.5 11.6,19.7 6.2,5.2 13.4,7.9 21.7,7.9 6.8,0 13.1,-1.9 18.7,-5.6 5.6,-3.7 9.8,-8.7 12.5,-14.9 h 9.8 c -2.9,8.8 -8.1,15.9 -15.6,21.4 -7.6,5.5 -16,8.2 -25.3,8.2 -11.9,0 -22,-4.2 -30.4,-12.6 -8.4,-8.4 -12.6,-18.5 -12.6,-30.4 0,-11.9 4.2,-22 12.6,-30.4 8.4,-8.4 18.5,-12.6 30.4,-12.6 11.9,0 22,4.2 30.4,12.6 8.4,8.4 12.6,18.5 12.6,30.4 v 4.7 z m -9.8,-11 c -1.5,-7.9 -5.4,-14.5 -11.6,-19.7 -6.3,-5.2 -13.5,-7.9 -21.6,-7.9 -8.1,0 -15.3,2.6 -21.6,7.9 -6.3,5.2 -10.2,11.8 -11.6,19.7 -0.2,1.2 0.3,1.8 1.5,1.8 h 63.5 c 1.1,0 1.6,-0.6 1.4,-1.8 z"
         id="path3055"
         inkscape:connector-curvature="0"
         style="fill:#a4b5bf" /><path
         d="m 359.3,241.7 h -9.2 v -13.8 h 9.2 v 13.8 z m 0,97.2 h -9.2 v -83.1 h 9.2 v 83.1 z"
         id="path3057"
         inkscape:connector-curvature="0"
         style="fill:#a4b5bf" /><path
         d="m 439.7,283.6 h -13 v -5.9 c 0,-4 -2,-7.4 -6,-10.2 -4,-2.9 -8.8,-4.3 -14.4,-4.3 -5.6,0 -10.4,1.4 -14.5,4.2 -4.1,2.8 -6.1,6.1 -6.1,9.9 0,6.1 4.1,10.3 12.4,12.6 l 21,5.8 c 6.2,1.7 11.1,4.5 14.8,8.4 3.7,3.9 5.6,8.2 5.6,12.8 0,4.2 -1.5,8 -4.4,11.6 -6.6,7.7 -16.2,11.6 -28.8,11.6 -9.3,0 -17.2,-2.3 -23.8,-6.9 -6.6,-4.6 -9.9,-10.2 -9.9,-16.7 v -5.9 h 13 v 5.9 c 0,4 2,7.4 6,10.2 4,2.9 8.8,4.3 14.4,4.3 5.6,0 10.4,-1.4 14.5,-4.2 4.1,-2.8 6.1,-6.1 6.1,-9.9 0,-6 -4.1,-10.2 -12.4,-12.6 l -21,-5.9 c -6.3,-1.8 -11.3,-4.6 -14.9,-8.4 -3.6,-3.8 -5.5,-8 -5.5,-12.7 0,-4.2 1.5,-8 4.4,-11.6 6.6,-7.7 16.2,-11.6 28.8,-11.6 9.3,0 17.2,2.3 23.8,6.9 6.6,4.6 9.9,10.2 9.9,16.7 v 5.9 z"
         id="path3059"
         inkscape:connector-curvature="0"
         style="fill:#a4b5bf" /><path
         d="m 542.3,255.6 -11,71.5 c -0.5,3.7 -2.1,6.7 -4.6,9 -2.5,2.4 -5.5,3.6 -8.8,3.6 -3.3,0 -6.2,-1.2 -8.8,-3.6 -2.5,-2.4 -4.1,-5.4 -4.6,-9 -5.9,-38.2 -9,-58.7 -9.5,-61.7 -0.2,-1.2 -0.8,-1.8 -1.7,-1.8 -1,0 -1.6,0.6 -1.7,1.8 l -9.4,61.7 c -0.5,3.7 -2.1,6.7 -4.5,9 -2.5,2.4 -5.4,3.6 -8.8,3.6 -3.3,0 -6.2,-1.2 -8.8,-3.6 -2.5,-2.4 -4.1,-5.4 -4.6,-9 l -11,-71.5 h 8.4 l 10.7,70 c 0.5,3.3 2.3,4.9 5.2,4.9 3.1,0 4.9,-1.6 5.3,-4.9 l 9.2,-61.8 c 0.4,-2.7 1.5,-4.9 3.3,-6.6 1.9,-1.7 4.1,-2.6 6.5,-2.6 2.5,0 4.7,0.9 6.5,2.6 1.8,1.7 3,3.9 3.4,6.6 l 9.4,61.8 c 0.5,3.3 2.3,4.9 5.3,4.9 2.9,0 4.7,-1.6 5.2,-4.9 l 10.7,-70 h 8.7 z"
         id="path3061"
         inkscape:connector-curvature="0"
         style="fill:#a4b5bf" /><path
         d="m 562.4,241.7 h -9.2 v -13.8 h 9.2 v 13.8 z m 0,97.2 h -9.2 v -83.1 h 9.2 v 83.1 z"
         id="path3063"
         inkscape:connector-curvature="0"
         style="fill:#a4b5bf" /><path
         d="m 642.1,338.9 h -9 v -51.8 c 0,-6.6 -2.4,-12.3 -7,-17 -4.7,-4.7 -10.4,-7 -17,-7 -6.6,0 -12.3,2.3 -17.1,7 -4.7,4.7 -7.1,10.4 -7.1,17 v 51.8 h -9 v -51.8 c 0,-9.1 3.2,-16.9 9.7,-23.4 6.5,-6.5 14.3,-9.7 23.5,-9.7 9.1,0 16.9,3.2 23.4,9.7 6.5,6.5 9.7,14.3 9.7,23.4 v 51.8 z"
         id="path3065"
         inkscape:connector-curvature="0"
         style="fill:#a4b5bf" /><path
         d="m 739.9,297.7 c 0,11.7 -4.2,21.7 -12.7,30 -8.5,8.3 -18.6,12.5 -30.3,12.5 -11.9,0 -22,-4.2 -30.4,-12.6 -8.4,-8.4 -12.6,-18.5 -12.6,-30.4 0,-11.9 4.2,-22 12.6,-30.4 8.4,-8.4 18.5,-12.6 30.4,-12.6 13.2,0 24,5 32.6,15.1 0.2,0.2 0.5,0.2 0.9,0.1 0.3,-0.1 0.4,-0.3 0.4,-0.6 v -40.9 h 9 v 69.8 z m -9,-0.6 c 0,-9.4 -3.3,-17.4 -9.9,-24 -6.6,-6.6 -14.6,-9.9 -24,-9.9 -9.3,0 -17.3,3.3 -24,9.9 -6.7,6.6 -10,14.6 -10,24 0,9.3 3.3,17.3 9.9,23.9 6.6,6.6 14.6,9.9 24,9.9 9.4,0 17.4,-3.3 24,-9.9 6.7,-6.6 10,-14.6 10,-23.9 z"
         id="path3067"
         inkscape:connector-curvature="0"
         style="fill:#a4b5bf" /></g><path
       stroke-miterlimit="10"
       d="m 250.7,297.1 c 0,0 3.3,43 43,43 50.3,0 65.5,-85.6 109.9,-85.6 53.8,0 72.8,84.4 110.2,84.4 56.9,0 48.6,-84.4 94.1,-84.4 49.7,0 33.1,85.6 89.1,85.6 43,0 43,-41.2 43,-56.1 0,-14.9 0,-56.1 0,-56.1"
       id="path3069"
       inkscape:connector-curvature="0"
       style="fill:none;stroke:#2b3990;stroke-miterlimit:10" /></g></svg>